<?xml version="1.0" standalone="no"?>
<!DOCTYPE svg PUBLIC "-//W3C//DTD SVG 20010904//EN"
 "http://www.w3.org/TR/2001/REC-SVG-20010904/DTD/svg10.dtd">
<svg version="1.0" xmlns="http://www.w3.org/2000/svg"
 width="512.000000pt" height="512.000000pt" viewBox="0 0 512.000000 512.000000"
 preserveAspectRatio="xMidYMid meet">
<metadata>
Created by potrace 1.16, written by Peter Selinger 2001-2019
</metadata>
<g transform="translate(0.000000,512.000000) scale(0.100000,-0.100000)"
fill="#000000" stroke="none">
<path d="M2341 4228 c-262 -29 -553 -146 -807 -324 -136 -96 -362 -320 -457
-454 -150 -213 -244 -451 -282 -723 -18 -123 -19 -169 -5 -147 5 8 10 32 10
52 0 45 42 249 70 336 22 70 86 209 108 232 7 8 36 53 63 100 108 184 262 357
401 449 33 23 70 41 82 41 12 0 27 9 33 19 17 27 179 125 301 183 185 88 371
138 585 158 204 18 438 -22 681 -118 69 -27 129 -46 132 -41 3 5 17 9 31 9 84
0 318 -196 456 -382 39 -53 187 -299 187 -311 0 -6 3 -8 6 -4 8 8 -75 164
-141 262 -129 194 -282 347 -458 458 l-91 57 -14 -26 c-7 -14 -19 -23 -25 -20
-7 2 -58 25 -115 50 -133 60 -245 92 -390 112 -70 10 -121 22 -128 30 -13 16
-100 17 -233 2z"/>
<path d="M2375 3959 c-146 -13 -313 -61 -450 -129 -139 -69 -245 -146 -399
-289 -60 -56 -122 -109 -137 -118 -33 -20 -142 -241 -188 -380 -82 -252 -97
-442 -61 -768 11 -98 17 -181 15 -184 -3 -2 -5 4 -5 14 0 10 -3 16 -6 12 -4
-3 4 -51 16 -107 16 -70 27 -100 38 -100 16 0 15 7 -12 128 -20 91 -37 313
-29 381 4 33 2 51 -5 51 -14 0 -7 129 13 256 21 128 89 333 155 464 41 83 69
122 129 185 42 44 99 107 126 140 70 85 158 167 202 190 21 10 74 42 118 71
97 63 156 93 181 93 10 0 63 13 117 30 115 36 315 57 447 46 114 -9 254 -40
370 -81 124 -44 150 -43 36 2 -130 52 -256 82 -386 94 -128 11 -155 11 -285
-1z"/>
<path d="M2528 3853 c17 -2 47 -2 65 0 17 2 3 4 -33 4 -36 0 -50 -2 -32 -4z"/>
<path d="M2418 3843 c12 -2 32 -2 45 0 12 2 2 4 -23 4 -25 0 -35 -2 -22 -4z"/>
<path d="M2690 3839 c56 -7 102 -19 255 -63 11 -4 4 1 -15 10 -54 25 -218 64
-264 63 -33 -1 -28 -3 24 -10z"/>
<path d="M2320 3830 c-20 -6 -21 -8 -5 -8 11 0 34 4 50 8 27 7 27 8 5 8 -14 0
-36 -4 -50 -8z"/>
<path d="M2268 3813 c7 -3 16 -2 19 1 4 3 -2 6 -13 5 -11 0 -14 -3 -6 -6z"/>
<path d="M2055 3783 c-49 -32 -101 -75 -98 -79 2 -2 -16 -21 -40 -41 -86 -77
-85 -77 -101 -63 -13 10 -25 3 -73 -39 -80 -70 -146 -150 -148 -176 0 -12 -26
-51 -58 -87 -187 -213 -273 -717 -191 -1117 19 -92 83 -295 91 -287 3 3 -4 31
-16 63 -108 291 -106 717 5 1039 33 99 62 155 123 247 27 39 59 96 71 124 16
37 45 74 97 123 73 70 75 71 116 65 41 -6 45 -4 127 65 47 40 98 84 115 98 16
15 43 35 60 44 l30 17 -30 -2 c-24 -2 -29 2 -27 16 4 23 -7 22 -53 -10z"/>
<path d="M2971 3766 c10 -9 69 -36 69 -32 0 6 -55 36 -66 36 -4 0 -5 -2 -3 -4z"/>
<path d="M3095 3703 c6 -5 35 -26 65 -47 40 -27 46 -29 23 -9 -29 26 -110 77
-88 56z"/>
<path d="M3295 3540 c43 -47 83 -89 89 -95 5 -5 0 4 -12 20 -11 17 -51 59 -89
95 l-68 65 80 -85z"/>
<path d="M3390 3575 c13 -14 26 -25 28 -25 3 0 -5 11 -18 25 -13 14 -26 25
-28 25 -3 0 5 -11 18 -25z"/>
<path d="M4007 3413 c66 -142 85 -197 118 -328 44 -176 65 -356 65 -555 0
-152 -20 -365 -36 -391 -3 -6 -19 -8 -35 -5 -33 6 -37 -4 -11 -27 25 -23 59
-21 72 3 20 36 42 271 42 435 -1 280 -38 483 -128 703 -40 96 -112 242 -119
242 -2 0 12 -35 32 -77z"/>
<path d="M2428 3379 c-190 -23 -392 -99 -472 -176 -123 -119 -203 -339 -221
-608 -7 -99 6 -271 25 -330 7 -21 7 -9 2 40 -8 82 -4 305 7 355 5 26 9 3 14
-90 4 -74 14 -156 26 -200 11 -41 18 -59 16 -40 -12 86 -17 317 -7 323 6 4 12
-14 16 -47 14 -109 22 -109 22 0 0 135 26 238 90 351 42 72 137 183 157 183 6
0 43 32 83 70 41 39 79 70 85 70 6 0 -25 -34 -68 -76 -43 -42 -69 -70 -58 -61
34 25 140 76 222 104 74 26 87 27 258 27 198 0 258 -11 409 -74 115 -48 136
-66 179 -150 41 -81 40 -66 -3 48 -15 39 -25 72 -21 72 19 0 139 -90 158 -119
33 -49 28 -26 -10 44 -27 51 -42 65 -97 97 -102 60 -272 127 -399 159 -131 34
-285 44 -413 28z"/>
<path d="M3950 3265 c0 -5 5 -17 10 -25 5 -8 10 -10 10 -5 0 6 -5 17 -10 25
-5 8 -10 11 -10 5z"/>
<path d="M4200 3215 c0 -5 5 -17 10 -25 5 -8 10 -10 10 -5 0 6 -5 17 -10 25
-5 8 -10 11 -10 5z"/>
<path d="M4220 3165 c0 -5 5 -17 10 -25 5 -8 10 -10 10 -5 0 6 -5 17 -10 25
-5 8 -10 11 -10 5z"/>
<path d="M3801 3155 c1 -19 18 -51 18 -35 0 8 -4 22 -9 30 -5 8 -9 11 -9 5z"/>
<path d="M4244 3105 c76 -209 125 -529 112 -743 -41 -688 -470 -1269 -1133
-1536 -149 -60 -271 -90 -308 -76 -26 10 -27 9 -14 -7 25 -33 52 -53 77 -60
124 -31 456 107 712 295 119 88 325 302 402 417 168 255 263 514 298 820 21
186 6 397 -44 607 -23 97 -88 284 -103 298 -3 3 -3 -4 1 -15z"/>
<path d="M3884 3013 c18 -90 26 -172 26 -282 0 -191 -46 -389 -141 -609 -18
-40 -20 -55 -11 -64 9 -9 12 -8 12 7 0 10 14 43 31 73 74 131 137 364 144 531
4 105 -14 249 -40 324 -19 52 -30 63 -21 20z"/>
<path d="M2475 2933 c-99 -52 -141 -165 -98 -261 l16 -37 7 45 c15 108 95 183
195 183 54 0 85 -12 123 -46 47 -43 14 39 -35 85 -15 15 -41 32 -56 37 -41 16
-117 13 -152 -6z"/>
<path d="M2957 2895 c4 -16 8 -78 8 -136 0 -101 -1 -108 -38 -181 -61 -125
-171 -207 -310 -231 -141 -24 -299 50 -399 187 -37 52 -36 33 2 -28 99 -156
246 -247 398 -247 64 0 85 5 139 31 201 99 294 326 227 555 -16 56 -40 100
-27 50z"/>
<path d="M3818 2775 c-3 -6 -13 -38 -22 -71 -57 -222 -169 -453 -310 -639 -70
-93 -236 -263 -316 -322 -59 -44 -205 -136 -281 -177 -76 -41 -193 -59 -338
-53 -149 6 -252 30 -364 85 l-78 39 43 -44 c55 -56 193 -126 293 -148 60 -14
104 -16 208 -11 228 10 217 7 257 84 34 65 36 67 70 65 71 -5 83 -2 153 34
140 74 423 306 411 337 -3 7 14 38 38 69 24 31 61 81 82 112 22 30 43 55 48
55 5 0 6 5 3 10 -3 6 -2 10 3 10 17 0 80 213 97 326 15 105 17 260 3 239z"/>
<path d="M3071 2670 c-2 -143 -57 -266 -166 -376 -112 -114 -245 -164 -400
-151 -186 16 -386 149 -472 313 -39 75 -42 59 -3 -19 67 -136 218 -275 356
-327 91 -34 152 -43 247 -37 74 4 98 10 155 38 125 64 236 193 282 328 15 44
20 84 19 148 -2 112 -16 179 -18 83z"/>
<path d="M772 2490 c0 -19 2 -27 5 -17 2 9 2 25 0 35 -3 9 -5 1 -5 -18z"/>
<path d="M1827 2270 c-3 -12 -1 -18 5 -14 6 4 8 -1 4 -14 -8 -23 2 -72 14 -72
5 0 6 10 3 23 -3 12 14 -7 37 -42 86 -128 271 -282 414 -345 95 -42 164 -57
297 -63 103 -5 140 -2 205 13 43 10 85 18 92 17 6 0 12 3 12 8 0 5 4 8 8 6 19
-5 113 67 180 137 74 78 149 182 139 192 -3 3 -40 -23 -82 -59 -103 -87 -211
-149 -326 -189 -90 -31 -100 -33 -244 -33 -126 0 -162 4 -228 23 -154 44 -278
123 -399 251 -42 44 -87 103 -101 130 -20 40 -26 47 -30 31z"/>
<path d="M1111 2264 c0 -11 3 -14 6 -6 3 7 2 16 -1 19 -3 4 -6 -2 -5 -13z"/>
<path d="M1121 2194 c0 -11 3 -14 6 -6 3 7 2 16 -1 19 -3 4 -6 -2 -5 -13z"/>
<path d="M1131 2144 c0 -11 3 -14 6 -6 3 7 2 16 -1 19 -3 4 -6 -2 -5 -13z"/>
<path d="M1500 2065 c0 -5 5 -17 10 -25 5 -8 10 -10 10 -5 0 6 -5 17 -10 25
-5 8 -10 11 -10 5z"/>
<path d="M1525 1996 c23 -107 178 -363 301 -495 98 -105 179 -167 302 -229
166 -84 277 -112 452 -112 118 0 194 11 287 41 35 11 66 18 71 15 19 -12 142
140 142 176 0 15 -5 15 -60 -4 -35 -11 -65 -28 -71 -40 -27 -51 -178 -83 -394
-83 -205 0 -281 17 -450 100 -231 113 -412 303 -542 568 -24 51 -42 79 -38 63z"/>
<path d="M900 1805 c0 -5 5 -17 10 -25 5 -8 10 -10 10 -5 0 6 -5 17 -10 25 -5
8 -10 11 -10 5z"/>
<path d="M930 1738 c0 -13 88 -186 127 -252 189 -313 485 -606 763 -753 243
-128 535 -194 792 -179 127 7 138 11 130 38 -5 19 -10 20 -101 13 -232 -16
-529 47 -774 164 -350 168 -676 492 -886 881 -28 52 -51 92 -51 88z"/>
<path d="M3524 1709 c-46 -49 -172 -148 -256 -202 -57 -36 -78 -55 -78 -71 0
-11 -11 -47 -24 -78 -13 -32 -22 -58 -19 -58 10 0 153 103 204 147 87 75 158
163 203 250 22 43 6 49 -30 12z"/>
<path d="M1243 1694 c6 -29 123 -214 185 -292 208 -264 419 -434 660 -535 159
-67 269 -88 500 -96 176 -5 193 -5 198 11 3 10 0 26 -6 38 -10 18 -8 20 27 22
57 2 57 2 86 25 15 11 78 42 140 68 135 57 213 100 313 171 41 30 79 54 83 54
18 0 212 163 262 220 68 76 89 115 89 162 0 66 -9 73 -38 31 -72 -108 -241
-269 -410 -390 -158 -114 -347 -199 -532 -239 -130 -29 -402 -26 -530 5 -215
53 -405 139 -583 265 -167 119 -305 268 -415 447 -18 30 -31 45 -29 33z m631
-636 c134 -85 252 -132 446 -179 l75 -19 -60 6 c-76 8 -208 46 -309 89 -69 30
-276 158 -276 171 0 7 32 -11 124 -68z m589 -205 c-13 -2 -33 -2 -45 0 -13 2
-3 4 22 4 25 0 35 -2 23 -4z"/>
</g>
</svg>